# xmcd
#
# Track frame offsets:
#	150
#	9005
#	18763
#	28649
#	38482
#	47610
#	57182
#	66288
#	77438
#	84688
#	93662
#	103245
#	113736
#	124289
#	134360
#	142548
#	153539
#	163145
#	172204
#	180257
#
# Disc length: 2519 seconds
#
# Revision: 2
# Processed by: cddbd v1.5.2PL0 Copyright (c) Steve Scherf et al.
# Submitted via: audiograbber 1.83.01
#
DISCID=f709d514
DTITLE=Various Artist - Rock-A-Billy - Dancing Doll - CD3
DYEAR=1900
DGENRE=Rock and Roll
TTITLE0=Art Adams - Dancing Doll
TTITLE1=Cliff Johnson - Go Away Hound Dog
TTITLE2=Tommy Scott - Cat Music
TTITLE3=Pee Wee King - Catty Town
TTITLE4=Wanda Jackson  - Baby Loves Him
TTITLE5=Al Terry - Watch Dog
TTITLE6=Bill Flagg - Go Cat Go
TTITLE7=Johnny Cash - Cry, Cry, Cry
TTITLE8=Larry Collins - Whistle Bait
TTITLE9=Ron Haydock and The Boppers - 99 Chicks
TTITLE10=Link Wray - Rawhide
TTITLE11=Jimmy Selph - Tom Catin' Around
TTITLE12=Johnny Horton  - Honky Tonk Hardwood Floor
TTITLE13=Maddox Brothers - Ugly And Slouchy
TTITLE14=Freddie Hart - Snatch It And Grab It
TTITLE15=Marvin Rainwater - Mister Blues
TTITLE16=Janis Martin - Drugstore Rock'n'Roll
TTITLE17=Sonny Fisher - Pink And Black
TTITLE18=Bill Mack - Cat Just Got Into Town
TTITLE19=Elvis Presley - That's All Right
EXTD=
EXTT0=
EXTT1=
EXTT2=
EXTT3=
EXTT4=
EXTT5=
EXTT6=
EXTT7=
EXTT8=
EXTT9=
EXTT10=
EXTT11=
EXTT12=
EXTT13=
EXTT14=
EXTT15=
EXTT16=
EXTT17=
EXTT18=
EXTT19=
PLAYORDER=
